<svg xmlns="http://www.w3.org/2000/svg" width="63.857" height="63.856" viewBox="0 0 63.857 63.856"><defs><style>.a{fill:#00a871;}.b{fill:#0050d8;}</style></defs><g transform="translate(22194.266 18137.266)"><g transform="translate(-22175.109 -18137.266)"><g transform="translate(0)"><path class="a" d="M161.779,12.949a7.45,7.45,0,1,0-10.017,0,9.591,9.591,0,0,0-7.763,9.4v4.257a1.064,1.064,0,0,0,1.064,1.064h23.414a1.064,1.064,0,0,0,1.064-1.064V22.349A9.591,9.591,0,0,0,161.779,12.949Zm-10.33-5.5a5.321,5.321,0,1,1,5.321,5.321A5.327,5.327,0,0,1,151.45,7.45Zm15.964,18.092H146.129V22.349a7.459,7.459,0,0,1,7.45-7.45h6.386a7.459,7.459,0,0,1,7.45,7.45Z" transform="translate(-144)"/></g></g><g transform="translate(-22194.266 -18101.08)"><g transform="translate(0 0)"><path class="b" d="M17.779,284.949a7.45,7.45,0,1,0-10.017,0A9.591,9.591,0,0,0,0,294.349v4.257a1.064,1.064,0,0,0,1.064,1.064H24.478a1.064,1.064,0,0,0,1.064-1.064v-4.257A9.591,9.591,0,0,0,17.779,284.949Zm-10.33-5.5a5.321,5.321,0,1,1,5.321,5.321A5.327,5.327,0,0,1,7.45,279.45Zm15.964,18.092H2.129v-3.193a7.459,7.459,0,0,1,7.45-7.45h6.386a7.459,7.459,0,0,1,7.45,7.45Z" transform="translate(0 -272)"/></g></g><g transform="translate(-22155.951 -18101.08)"><g transform="translate(0 0)"><path class="b" d="M305.779,284.949a7.45,7.45,0,1,0-10.017,0,9.591,9.591,0,0,0-7.763,9.4v4.257a1.064,1.064,0,0,0,1.064,1.064h23.414a1.064,1.064,0,0,0,1.064-1.064v-4.257A9.591,9.591,0,0,0,305.779,284.949Zm-10.33-5.5a5.321,5.321,0,1,1,5.321,5.321A5.327,5.327,0,0,1,295.45,279.45Zm15.964,18.092H290.129v-3.193a7.459,7.459,0,0,1,7.45-7.45h6.386a7.459,7.459,0,0,1,7.45,7.45Z" transform="translate(-288 -272)"/></g></g><g transform="translate(-22189.986 -18103.244)"><g transform="translate(0 0)"><path class="a" d="M34.294,255.744l-2.126.083c.029.733.087,1.476.175,2.206l2.114-.253C34.375,257.106,34.321,256.421,34.294,255.744Z" transform="translate(-32.168 -255.744)"/></g></g><g transform="translate(-22189.986 -18107.576)"><g transform="translate(0 0)"><path class="a" d="M32.341,223.176c-.086.726-.146,1.468-.173,2.205l2.126.083c.027-.681.081-1.365.161-2.037Z" transform="translate(-32.168 -223.176)"/></g></g><g transform="translate(-22180.818 -18126.283)"><g transform="translate(0 0)"><path class="a" d="M102.794,82.544c-.582.444-1.156.918-1.706,1.412l1.423,1.584c.507-.455,1.036-.894,1.573-1.3Z" transform="translate(-101.088 -82.544)"/></g></g><g transform="translate(-22188.246 -18116.055)"><g transform="translate(0)"><path class="a" d="M46.118,159.44c-.313.665-.6,1.351-.862,2.041l1.992.748c.239-.636.507-1.269.795-1.881Z" transform="translate(-45.256 -159.44)"/></g></g><g transform="translate(-22189.465 -18111.912)"><g transform="translate(0 0)"><path class="a" d="M36.612,190.584c-.2.7-.378,1.428-.524,2.15l2.087.42c.134-.665.3-1.334.483-1.984Z" transform="translate(-36.088 -190.584)"/></g></g><g transform="translate(-22183.861 -18123.326)"><g transform="translate(0 0)"><path class="a" d="M79.667,104.776c-.51.536-1,1.1-1.459,1.662l1.655,1.339c.424-.524.877-1.041,1.347-1.536Z" transform="translate(-78.208 -104.776)"/></g></g><g transform="translate(-22177.303 -18128.676)"><g transform="translate(0 0)"><path class="a" d="M129.421,64.568c-.644.344-1.286.722-1.909,1.123l1.154,1.79c.575-.371,1.166-.719,1.758-1.036Z" transform="translate(-127.512 -64.568)"/></g></g><g transform="translate(-22186.361 -18119.893)"><g transform="translate(0 0)"><path class="a" d="M60.6,130.6c-.416.608-.812,1.238-1.177,1.875l1.846,1.058c.336-.587.7-1.17,1.087-1.729Z" transform="translate(-59.424 -130.6)"/></g></g><g transform="translate(-22167.801 -18079.23)"><g transform="translate(0 0)"><path class="a" d="M199.356,436.256l-.42,2.087c.716.145,1.453.261,2.188.347l.247-2.114C200.7,436.5,200.016,436.389,199.356,436.256Z" transform="translate(-198.936 -436.256)"/></g></g><g transform="translate(-22159.246 -18079.242)"><g transform="translate(0 0)"><path class="a" d="M265.258,436.16c-.661.134-1.339.244-2.018.327l.257,2.114c.734-.089,1.469-.209,2.184-.353Z" transform="translate(-263.24 -436.16)"/></g></g><g transform="translate(-22163.408 -18078.752)"><g transform="translate(0 0)"><path class="a" d="M234.079,439.84c-.68.027-1.368.03-2.043,0l-.084,2.126c.354.015.712.021,1.074.021.381,0,.761-.01,1.139-.024Z" transform="translate(-231.952 -439.84)"/></g></g><g transform="translate(-22145.275 -18124.863)"><g transform="translate(0 0)"><path class="a" d="M369.678,93.224l-1.422,1.584c.507.455,1,.934,1.463,1.424l1.545-1.463C370.76,94.236,370.227,93.717,369.678,93.224Z" transform="translate(-368.256 -93.224)"/></g></g><g transform="translate(-22142.465 -18121.658)"><g transform="translate(0 0)"><path class="a" d="M391.039,117.32l-1.655,1.339c.425.525.835,1.077,1.221,1.639l1.755-1.2C391.943,118.486,391.5,117.889,391.039,117.32Z" transform="translate(-389.384 -117.32)"/></g></g><g transform="translate(-22136.816 -18105.367)"><g transform="translate(0 0)"><path class="a" d="M433.974,239.776l-2.126.083c.014.335.02.674.02,1.011s-.006.69-.02,1.033l2.126.083q.022-.556.022-1.119C434,240.5,433.989,240.138,433.974,239.776Z" transform="translate(-431.848 -239.776)"/></g></g><g transform="translate(-22140.158 -18118.01)"><g transform="translate(0 0)"><path class="a" d="M408.568,144.736l-1.848,1.059c.337.589.655,1.2.944,1.811l1.925-.909C409.276,146.033,408.933,145.373,408.568,144.736Z" transform="translate(-406.72 -144.736)"/></g></g><g transform="translate(-22138.42 -18114.01)"><g transform="translate(0 0)"><path class="a" d="M421.776,174.816l-1.992.749c.238.634.453,1.287.641,1.938l2.047-.586C422.269,176.21,422.035,175.5,421.776,174.816Z" transform="translate(-419.784 -174.816)"/></g></g><g transform="translate(-22137.299 -18109.758)"><g transform="translate(0 0)"><path class="a" d="M430.31,206.776l-2.086.419c.134.666.243,1.345.321,2.018l2.114-.251C430.573,208.234,430.456,207.5,430.31,206.776Z" transform="translate(-428.224 -206.776)"/></g></g><g transform="translate(-22148.52 -18127.549)"><g transform="translate(0 0)"><path class="a" d="M345.025,73.04l-1.153,1.79c.568.366,1.13.761,1.672,1.175l1.292-1.693C346.25,73.864,345.641,73.437,345.025,73.04Z" transform="translate(-343.872 -73.04)"/></g></g><g transform="translate(-22152.117 -18129.639)"><g transform="translate(0 0)"><path class="a" d="M317.676,57.328l-.852,1.95c.62.271,1.238.572,1.837.893l1.007-1.875C319.02,57.946,318.349,57.621,317.676,57.328Z" transform="translate(-316.824 -57.328)"/></g></g></g></svg>