<svg xmlns="http://www.w3.org/2000/svg" width="25.287" height="16.858" viewBox="0 0 25.287 16.858"><path d="M24.233,4.5H3.863A1.054,1.054,0,0,0,2.81,5.554V5.9H1.054A1.054,1.054,0,0,0,0,6.958V18.9a2.458,2.458,0,0,0,2.458,2.458H23.18a2.107,2.107,0,0,0,2.107-2.107V5.554A1.054,1.054,0,0,0,24.233,4.5ZM2.458,19.251a.351.351,0,0,1-.351-.351V8.012h.7V18.9A.351.351,0,0,1,2.458,19.251Zm10.361-.7H6.146a.527.527,0,0,1-.527-.527V17.67a.527.527,0,0,1,.527-.527h6.673a.527.527,0,0,1,.527.527v.351A.527.527,0,0,1,12.819,18.548Zm9.131,0H15.278a.527.527,0,0,1-.527-.527V17.67a.527.527,0,0,1,.527-.527h6.673a.527.527,0,0,1,.527.527v.351A.527.527,0,0,1,21.951,18.548Zm-9.131-4.215H6.146a.527.527,0,0,1-.527-.527v-.351a.527.527,0,0,1,.527-.527h6.673a.527.527,0,0,1,.527.527v.351A.527.527,0,0,1,12.819,14.334Zm9.131,0H15.278a.527.527,0,0,1-.527-.527v-.351a.527.527,0,0,1,.527-.527h6.673a.527.527,0,0,1,.527.527v.351A.527.527,0,0,1,21.951,14.334Zm0-4.215H6.146a.527.527,0,0,1-.527-.527V7.836a.527.527,0,0,1,.527-.527h15.8a.527.527,0,0,1,.527.527V9.593A.527.527,0,0,1,21.951,10.119Z" transform="translate(0 -4.5)"/></svg>