<svg xmlns="http://www.w3.org/2000/svg" width="24" height="24.001" viewBox="0 0 24 24.001"><path d="M23.486,18.547,18,13.059a3.48,3.48,0,0,0-4-.652l-5-5V4.5L3,0,0,3,4.5,9H7.409l5,5a3.488,3.488,0,0,0,.652,4l5.489,5.489a1.743,1.743,0,0,0,2.47,0l2.47-2.47a1.751,1.751,0,0,0,0-2.47Zm-7.94-8A4.932,4.932,0,0,1,19.057,12l.909.909a6.635,6.635,0,0,0,2.053-1.383A6.741,6.741,0,0,0,23.8,5.118a.561.561,0,0,0-.942-.258L19.366,8.348l-3.183-.53-.53-3.183,3.487-3.487A.566.566,0,0,0,18.874.2a6.752,6.752,0,0,0-6.4,1.776A6.642,6.642,0,0,0,10.54,6.834l3.848,3.848a5.106,5.106,0,0,1,1.158-.136Zm-4.87,3.843L8.019,11.732.875,18.88a3,3,0,1,0,4.242,4.242l5.793-5.793a5.033,5.033,0,0,1-.234-2.939ZM3,22.124A1.125,1.125,0,1,1,4.124,21,1.128,1.128,0,0,1,3,22.124Z" transform="translate(0.004)"/></svg>