<svg xmlns="http://www.w3.org/2000/svg" width="52.86" height="52.857" viewBox="0 0 52.86 52.857"><defs><style>.a{fill:#0050d8;}.b{fill:#00a871;}</style></defs><g transform="translate(0 -0.414)"><path class="a" d="M43.4,82.548a1.222,1.222,0,0,0-1.218,1.218V106.54a3.666,3.666,0,0,1-3.655,3.655H6.092a3.666,3.666,0,0,1-3.655-3.655V74.1a3.666,3.666,0,0,1,3.655-3.655H28.865a1.218,1.218,0,0,0,0-2.437H6.092A6.1,6.1,0,0,0,0,74.1V106.54a6.1,6.1,0,0,0,6.092,6.092H38.528a6.1,6.1,0,0,0,6.092-6.092V83.766A1.222,1.222,0,0,0,43.4,82.548Zm0,0" transform="translate(0 -59.362)"/><path class="b" d="M216.523.767a1.206,1.206,0,0,0-.865-.353,1.256,1.256,0,0,0-.865.353L197.345,18.215l-.049.049-.024.024c-.024.037-.061.073-.085.109,0,.012-.012.012-.012.025-.024.036-.037.061-.061.1-.012.012-.012.025-.024.037-.012.037-.024.061-.037.1,0,.012-.012.012-.012.024l-3.107,9.37a1.2,1.2,0,0,0,.293,1.243,1.227,1.227,0,0,0,.865.353,1.445,1.445,0,0,0,.39-.061l9.345-3.119c.012,0,.012,0,.024-.012a.434.434,0,0,0,.109-.049.044.044,0,0,0,.025-.012c.036-.024.085-.049.122-.073s.073-.061.109-.085c.012-.012.024-.012.024-.024s.037-.024.049-.049L222.749,8.7a1.213,1.213,0,0,0,0-1.718ZM197.016,26.5l1.718-5.166,3.448,3.448Zm7.421-2.912-4.508-4.508,15.73-15.73,4.508,4.508Zm0,0" transform="translate(-170.246 0)"/></g></svg>