<?xml version="1.0" encoding="utf-8"?>
<!-- Generator: Adobe Illustrator 25.4.1, SVG Export Plug-In . SVG Version: 6.00 Build 0)  -->
<svg version="1.1" id="Layer_1" xmlns="http://www.w3.org/2000/svg" xmlns:xlink="http://www.w3.org/1999/xlink" x="0px" y="0px"
	 viewBox="0 0 30 26.6" style="enable-background:new 0 0 30 26.6;" xml:space="preserve">
<path d="M7.8,12.8l6.6-6.6L12.3,4l-3,3C9.1,7.2,8.9,7.2,8.7,7c0,0,0,0,0,0L8.2,6.5C8,6.3,8,6.1,8.2,5.9l3-3L9.5,1.3
	c-0.6-0.6-1.6-0.6-2.2,0L3,5.7C2.4,6.3,2.4,7.3,3,7.9L7.8,12.8L7.8,12.8z M26.8,7c0.9-0.9,0.9-2.4,0-3.3l-2.2-2.2
	c-0.9-0.9-2.4-0.9-3.3,0L19,3.8l5.5,5.5L26.8,7L26.8,7z M17.9,4.9L3.4,19.4l-0.9,5.2c-0.1,0.7,0.5,1.3,1.2,1.2L9,24.9l14.5-14.5
	L17.9,4.9z M27,18.8l-1.6-1.6l-3,3c-0.2,0.2-0.4,0.2-0.5,0l-0.5-0.5c-0.2-0.2-0.2-0.4,0-0.5l3-3l-2.2-2.2l-6.6,6.6l4.9,4.9
	c0.6,0.6,1.6,0.6,2.2,0L27,21C27.7,20.4,27.7,19.4,27,18.8L27,18.8z"/>
</svg>
