<?xml version="1.0" encoding="utf-8"?>
<!-- Generator: Adobe Illustrator 25.4.1, SVG Export Plug-In . SVG Version: 6.00 Build 0)  -->
<svg version="1.1" id="Layer_1" xmlns="http://www.w3.org/2000/svg" xmlns:xlink="http://www.w3.org/1999/xlink" x="0px" y="0px"
	 viewBox="0 0 40.2 31.6" style="enable-background:new 0 0 40.2 31.6;" xml:space="preserve">
<path d="M16.6,16.9c3.9,0,7-3.1,7-7s-3.1-7-7-7s-7,3.1-7,7S12.7,16.9,16.6,16.9z M21.5,18.6h-0.9c-1.2,0.6-2.6,0.9-4,0.9
	c-1.4,0-2.8-0.3-4-0.9h-0.9c-4.1,0-7.4,3.3-7.4,7.4v2.3c0,1.4,1.2,2.6,2.6,2.6h15c-0.1-0.4-0.2-0.8-0.1-1.2l0.4-3.3l0.1-0.6l0.4-0.4
	l4.2-4.2C25.6,19.6,23.7,18.6,21.5,18.6z M24,26.5l-0.4,3.3c-0.1,0.6,0.4,1,1,1l3.3-0.4l7.5-7.5L31.5,19L24,26.5z M39,17.6l-2.1-2.1
	c-0.5-0.5-1.3-0.5-1.8,0L33,17.6l-0.2,0.2l3.9,3.9l2.3-2.3C39.5,18.9,39.5,18.1,39,17.6z"/>
</svg>
