<svg xmlns="http://www.w3.org/2000/svg" width="60.164" height="61.856" viewBox="0 0 60.164 61.856"><defs><style>.a{fill:#18a871;}.b{fill:#00a871;}.c{fill:#d8d8e4;}.d{fill:none;}.e{fill:#0835c9;}</style></defs><g transform="translate(-7.005)"><rect class="a" width="4.833" height="4.833" transform="translate(15.88 34.069)"/><rect class="a" width="4.833" height="4.833" transform="translate(15.88 21.505)"/><rect class="a" width="4.833" height="4.833" transform="translate(15.88 8.94)"/><rect class="a" width="4.833" height="4.833" transform="translate(15.88 46.634)"/><g transform="translate(7.005)"><path class="b" d="M287.186,116.939l17.755-30.753a3.383,3.383,0,0,1,4.621-1.238h0a3.383,3.383,0,0,1,1.238,4.621l-17.755,30.753L286,125.753Z" transform="translate(-252.297 -74.286)"/><path class="c" d="M293.045,356.433l-5.859-3.383L286,361.863Z" transform="translate(-252.297 -310.397)"/><path class="d" d="M438.988,91.583l1.163-2.014a3.383,3.383,0,0,0-1.238-4.621h0a3.383,3.383,0,0,0-4.621,1.238L433.129,88.2Z" transform="translate(-381.648 -74.286)"/><g transform="translate(0)"><path class="e" d="M76.5,168H71.67a1.208,1.208,0,0,0-1.208,1.208v4.833a1.208,1.208,0,0,0,1.208,1.208H76.5a1.208,1.208,0,0,0,1.208-1.208v-4.833A1.208,1.208,0,0,0,76.5,168Zm-1.208,4.833H72.878v-2.416h2.416Z" transform="translate(-62.796 -147.703)"/><path class="e" d="M76.5,168H71.67a1.208,1.208,0,0,0-1.208,1.208v4.833a1.208,1.208,0,0,0,1.208,1.208H76.5a1.208,1.208,0,0,0,1.208-1.208v-4.833A1.208,1.208,0,0,0,76.5,168Zm-1.208,4.833H72.878v-2.416h2.416Z" transform="translate(-62.796 -160.27)"/><path class="e" d="M323.626,209.208a1.209,1.209,0,1,0,.354-.854A1.217,1.217,0,0,0,323.626,209.208Z" transform="translate(-285.374 -182.871)"/><path class="e" d="M323.626,209.208a1.209,1.209,0,1,0,.354-.854A1.217,1.217,0,0,0,323.626,209.208Z" transform="translate(-285.374 -195.437)"/><path class="e" d="M167.466,208H151.337a1.208,1.208,0,1,0,0,2.416h16.129a1.208,1.208,0,1,0,0-2.416Z" transform="translate(-132.838 -182.871)"/><path class="e" d="M167.466,208H151.337a1.208,1.208,0,1,0,0,2.416h16.129a1.208,1.208,0,1,0,0-2.416Z" transform="translate(-132.838 -195.437)"/><path class="e" d="M76.5,272H71.67a1.208,1.208,0,0,0-1.208,1.208v4.833a1.208,1.208,0,0,0,1.208,1.208H76.5a1.208,1.208,0,0,0,1.208-1.208v-4.833A1.208,1.208,0,0,0,76.5,272Zm-1.208,4.833H72.878v-2.416h2.416Z" transform="translate(-62.796 -239.139)"/><path class="e" d="M76.5,376H71.67a1.208,1.208,0,0,0-1.208,1.208v4.833a1.208,1.208,0,0,0,1.208,1.208H76.5a1.208,1.208,0,0,0,1.208-1.208v-4.833A1.208,1.208,0,0,0,76.5,376Zm-1.208,4.833H72.878v-2.416h2.416Z" transform="translate(-62.796 -330.574)"/><path class="e" d="M161.712,416H151.337a1.208,1.208,0,1,0,0,2.416h10.375a1.208,1.208,0,0,0,0-2.416Z" transform="translate(-132.838 -365.742)"/><path class="e" d="M64.874,9.616A4.591,4.591,0,0,0,58.6,11.3L57.44,13.31h0l-1.627,2.818V4.108A4.112,4.112,0,0,0,51.706,0H11.113A4.112,4.112,0,0,0,7.005,4.108V57.749a4.112,4.112,0,0,0,4.108,4.108H51.706a4.112,4.112,0,0,0,4.108-4.108V34.673a1.2,1.2,0,0,0-.012-.161L65.392,17.9l1.163-2.014A4.6,4.6,0,0,0,64.874,9.616Zm-2.858,1.875a2.175,2.175,0,0,1,2.446,3.188l-.559.968-3.767-2.175L60.7,12.5A2.16,2.16,0,0,1,62.016,11.491ZM47.311,44.386l-3.767-2.175L58.929,15.564,62.7,17.739Zm-4.459.215,2.736,1.58L42.3,48.716ZM53.4,57.749a1.693,1.693,0,0,1-1.691,1.691H11.113a1.693,1.693,0,0,1-1.691-1.691V4.108a1.693,1.693,0,0,1,1.691-1.691H51.706A1.693,1.693,0,0,1,53.4,4.108V20.3c0,.005,0,.01,0,.015L43.362,37.694H25.5a1.208,1.208,0,0,0,0,2.416H41.967l-1.12,1.939a1.21,1.21,0,0,0-.151.443l-1.182,8.813a1.208,1.208,0,0,0,1.935,1.117l7.041-5.431a1.211,1.211,0,0,0,.308-.353l4.6-7.964Z" transform="translate(-7.005)"/></g></g></g></svg>