<svg xmlns="http://www.w3.org/2000/svg" width="57.752" height="57.751" viewBox="0 0 57.752 57.751"><defs><style>.a{fill:#00a871;}.b{fill:#0050d8;}</style></defs><g transform="translate(0 -0.001)"><g transform="translate(11.359 19.336)"><path class="a" d="M102.63,171.75a1.128,1.128,0,1,0,0,1.595A1.129,1.129,0,0,0,102.63,171.75Z" transform="translate(-100.704 -171.42)"/></g><g transform="translate(0 44.216)"><path class="a" d="M28.56,398.273a3.949,3.949,0,0,0-3.182-6.286H6.2a3.945,3.945,0,0,0-3.179,6.285A5.644,5.644,0,0,0,0,403.266v1.128a1.128,1.128,0,0,0,1.128,1.128H30.454a1.128,1.128,0,0,0,1.128-1.128v-1.128A5.644,5.644,0,0,0,28.56,398.273ZM5.007,394.738a1.681,1.681,0,0,1,1.2-.5H25.378a1.692,1.692,0,1,1,0,3.384H6.2a1.692,1.692,0,0,1-1.2-2.889Zm-2.751,8.528a3.388,3.388,0,0,1,3.384-3.384h20.3a3.388,3.388,0,0,1,3.384,3.384Z" transform="translate(0 -391.987)"/></g><g transform="translate(0.002 0.001)"><path class="b" d="M56.721,47.389a7.1,7.1,0,0,0-1.359-1.56l-5.27-4.6a1.12,1.12,0,0,0-.449-.391l-3.187-2.78L31.7,25.192a3.378,3.378,0,0,0-.991-5.387l1.365-1.365a4.514,4.514,0,0,0,4.356-1.166,4.511,4.511,0,0,0,0-6.381l-9.571-9.57a4.51,4.51,0,0,0-7.547,4.356L5.7,19.3a4.54,4.54,0,0,0-1.168-.153,4.511,4.511,0,0,0-3.19,7.7l9.57,9.571a4.51,4.51,0,0,0,7.547-4.356L19.82,30.7a3.385,3.385,0,0,0,5.389.989L40.922,49.74a1.133,1.133,0,0,0,.153.191c.02.02.042.039.063.057l4.682,5.38c.116.137.241.273.37.4a6.709,6.709,0,0,0,4.768,1.983,6.923,6.923,0,0,0,.949-.066A6.825,6.825,0,0,0,56.943,54.2,6.674,6.674,0,0,0,56.721,47.389ZM22.077,2.918a2.255,2.255,0,0,1,3.19,0l9.571,9.57a2.256,2.256,0,0,1-3.19,3.191L22.077,6.108h0A2.258,2.258,0,0,1,22.077,2.918ZM15.7,34.82a2.259,2.259,0,0,1-3.191,0l-9.57-9.57a2.256,2.256,0,0,1,3.189-3.191L15.7,31.63A2.257,2.257,0,0,1,15.7,34.82Zm4.749-7.939-3.154,3.154L7.72,20.464,20.481,7.7l9.571,9.571-3.16,3.16-.031.03-6.377,6.377Zm4.028,2.353-.007.007-.794.794a1.128,1.128,0,0,1-1.609-1.581l6.407-6.407a1.128,1.128,0,0,1,1.914.81,1.118,1.118,0,0,1-.331.8l-.79.79-.016.016Zm2.336.854,3.3-3.3L44.063,38.967,38.97,44.06ZM40.454,45.766l5.313-5.313,1.7,1.486-5.532,5.532ZM54.975,53.1A4.588,4.588,0,0,1,51.6,55.452a4.482,4.482,0,0,1-3.813-1.278c-.087-.087-.17-.177-.247-.269l-.011-.013-4.1-4.715,5.752-5.752,4.709,4.108.011.009a4.856,4.856,0,0,1,.931,1.071A4.453,4.453,0,0,1,54.975,53.1Z" transform="translate(-0.021 -0.001)"/></g><g transform="translate(14.549 11.36)"><path class="a" d="M135.7,101.038a1.128,1.128,0,0,0-1.6,0l-4.786,4.786a1.128,1.128,0,0,0,1.6,1.6l4.786-4.786A1.128,1.128,0,0,0,135.7,101.038Z" transform="translate(-128.985 -100.707)"/></g></g></svg>